<?xml version="1.0" encoding="UTF-8" standalone="no"?><!DOCTYPE svg PUBLIC "-//W3C//DTD SVG 1.1//EN" "http://www.w3.org/Graphics/SVG/1.1/DTD/svg11.dtd"><svg width="100%" height="100%" viewBox="0 0 1759 375" version="1.1" xmlns="http://www.w3.org/2000/svg" xmlns:xlink="http://www.w3.org/1999/xlink" xml:space="preserve" xmlns:serif="http://www.serif.com/" style="fill-rule:evenodd;clip-rule:evenodd;stroke-linejoin:round;stroke-miterlimit:2;"><path d="M433.244,188.793l20.296,-103.843l13.035,0l1.837,20.909l-22.046,106.468l-13.91,-0l0.788,-23.534Zm-9.973,-103.843l16.272,103.669l-1.05,23.708l-15.047,-0l-23.446,-127.377l23.271,0Zm63.775,103.319l16.185,-103.319l23.183,0l-23.358,127.377l-15.047,-0l-0.963,-24.058Zm-13.997,-103.319l20.384,104.281l0.437,23.096l-13.822,-0l-21.696,-106.643l1.837,-20.734l12.86,0Z" style="fill-rule:nonzero;"/><path d="M573.795,105.072l-29.132,107.255l-24.67,-0l40.155,-127.377l15.397,0l-1.75,20.122Zm23.008,107.255l-29.132,-107.255l-2.012,-20.122l15.572,0l40.33,127.377l-24.758,-0Zm0.788,-47.417l-0,19.509l-58.439,0l-0,-19.509l58.439,0Z" style="fill-rule:nonzero;"/><path d="M663.693,84.95l0,127.377l-23.27,-0l-0,-127.377l23.27,0Zm32.107,0l-0,19.597l-86.959,-0l0,-19.597l86.959,0Z" style="fill-rule:nonzero;"/><path d="M774.588,192.818l-0,19.509l-55.29,-0l0,-19.509l55.29,-0Zm-48.554,-107.868l0,127.377l-23.445,-0l-0,-127.377l23.445,0Zm41.118,52.316l-0,18.984l-47.854,-0l0,-18.984l47.854,-0Zm7.086,-52.316l-0,19.597l-54.94,-0l0,-19.597l54.94,0Z" style="fill-rule:nonzero;"/><path d="M781.901,84.95l39.631,0c8.456,0 15.659,1.458 21.608,4.375c5.949,2.916 10.484,7.231 13.604,12.947c3.12,5.716 4.68,12.744 4.68,21.084c0,6.648 -0.948,12.408 -2.843,17.278c-1.896,4.87 -4.578,8.938 -8.049,12.204c-3.47,3.266 -7.654,5.803 -12.553,7.611l-7.087,4.024l-32.806,0l-0.088,-19.509l23.009,0c3.791,0 6.955,-0.846 9.492,-2.537c2.537,-1.691 4.432,-4.039 5.686,-7.042c1.254,-3.004 1.881,-6.46 1.881,-10.367c-0,-4.258 -0.569,-7.917 -1.706,-10.979c-1.137,-3.062 -2.916,-5.41 -5.336,-7.043c-2.421,-1.633 -5.585,-2.449 -9.492,-2.449l-16.185,-0l0,107.78l-23.446,-0l0,-127.377Zm58.615,127.377l-23.884,-57.04l24.583,0l24.321,55.815l-0,1.225l-25.02,-0Z" style="fill-rule:nonzero;"/><path d="M897.695,188.793l20.296,-103.843l13.035,0l1.837,20.909l-22.046,106.468l-13.909,-0l0.787,-23.534Zm-9.973,-103.843l16.272,103.669l-1.05,23.708l-15.047,-0l-23.446,-127.377l23.271,0Zm63.775,103.319l16.185,-103.319l23.183,0l-23.358,127.377l-15.047,-0l-0.963,-24.058Zm-13.997,-103.319l20.384,104.281l0.437,23.096l-13.822,-0l-21.696,-106.643l1.837,-20.734l12.86,0Z" style="fill-rule:nonzero;"/><path d="M1084.88,138.49l0,21.434c0,8.982 -1.05,16.855 -3.149,23.62c-2.1,6.766 -5.133,12.409 -9.099,16.929c-3.966,4.52 -8.719,7.917 -14.259,10.191c-5.541,2.275 -11.665,3.412 -18.372,3.412c-6.765,0 -12.918,-1.137 -18.459,-3.412c-5.541,-2.274 -10.309,-5.671 -14.304,-10.191c-3.995,-4.52 -7.086,-10.163 -9.273,-16.929c-2.187,-6.765 -3.281,-14.638 -3.281,-23.62l0,-21.434c0,-9.156 1.079,-17.176 3.237,-24.058c2.158,-6.882 5.235,-12.626 9.23,-17.234c3.995,-4.607 8.763,-8.092 14.303,-10.454c5.541,-2.362 11.665,-3.543 18.372,-3.543c6.765,-0 12.904,1.181 18.415,3.543c5.512,2.362 10.265,5.847 14.26,10.454c3.995,4.608 7.057,10.352 9.186,17.234c2.129,6.882 3.193,14.902 3.193,24.058Zm-23.271,21.434l0,-21.609c0,-6.24 -0.466,-11.606 -1.399,-16.097c-0.933,-4.49 -2.333,-8.15 -4.2,-10.979c-1.866,-2.828 -4.155,-4.913 -6.867,-6.255c-2.712,-1.341 -5.818,-2.012 -9.317,-2.012c-3.558,-0 -6.693,0.671 -9.405,2.012c-2.712,1.342 -4.986,3.427 -6.823,6.255c-1.837,2.829 -3.223,6.489 -4.156,10.979c-0.933,4.491 -1.399,9.857 -1.399,16.097l-0,21.609c-0,6.124 0.466,11.373 1.399,15.747c0.933,4.374 2.348,7.932 4.243,10.673c1.896,2.741 4.199,4.768 6.911,6.08c2.712,1.312 5.847,1.968 9.405,1.968c3.499,0 6.605,-0.656 9.317,-1.968c2.712,-1.312 4.987,-3.339 6.824,-6.08c1.837,-2.741 3.207,-6.299 4.111,-10.673c0.904,-4.374 1.356,-9.623 1.356,-15.747Z" style="fill-rule:nonzero;"/><path d="M1165.67,192.818l0,19.509l-52.928,-0l0,-19.509l52.928,-0Zm-46.191,-107.868l-0,127.377l-23.446,-0l0,-127.377l23.446,0Z" style="fill-rule:nonzero;"/><path d="M1196.08,84.95l0,127.377l-23.445,-0l-0,-127.377l23.445,0Zm40.593,54.853l-0,19.508l-46.279,0l-0,-19.508l46.279,-0Zm5.424,-54.853l-0,19.597l-51.703,-0l-0,-19.597l51.703,0Z" style="fill-rule:nonzero;"/><path d="M1304.93,84.95l-0,127.377l-23.446,-0l0,-127.377l23.446,0Zm40.592,54.853l0,19.508l-46.279,0l0,-19.508l46.279,-0Zm5.424,-54.853l0,19.597l-51.703,-0l0,-19.597l51.703,0Z" style="fill-rule:nonzero;"/><path d="M1386.69,105.072l-29.132,107.255l-24.671,-0l40.155,-127.377l15.398,0l-1.75,20.122Zm23.008,107.255l-29.132,-107.255l-2.012,-20.122l15.572,0l40.33,127.377l-24.758,-0Zm0.788,-47.417l-0,19.509l-58.44,0l0,-19.509l58.44,0Z" style="fill-rule:nonzero;"/><path d="M1446.93,84.95l20.909,0l27.732,90.983l27.47,-90.983l18.984,0l-37.793,127.377l-17.497,-0l-39.805,-127.377Zm-8.136,0l19.684,0l3.062,82.585l0,44.792l-22.746,-0l0,-127.377Zm93.608,0l19.771,0l0,127.377l-22.746,-0l0,-44.792l2.975,-82.585Z" style="fill-rule:nonzero;"/><rect x="1566.58" y="84.95" width="23.271" height="127.376" style="fill-rule:nonzero;"/><path d="M1673.8,192.818l0,19.509l-52.928,-0l0,-19.509l52.928,-0Zm-46.191,-107.868l-0,127.377l-23.446,-0l-0,-127.377l23.446,0Z" style="fill-rule:nonzero;"/><path d="M1673.41,84.95l20.909,58.877l20.821,-58.877l25.72,0l-34.731,80.835l-0,46.542l-23.621,-0l0,-46.542l-34.731,-80.835l25.633,0Z" style="fill-rule:nonzero;"/><path d="M429.077,184.627l20.296,-103.843l13.035,-0l1.838,20.908l-22.046,106.468l-13.91,-0l0.787,-23.533Zm-9.973,-103.843l16.272,103.668l-1.05,23.708l-15.047,-0l-23.446,-127.376l23.271,-0Zm63.776,103.318l16.184,-103.318l23.183,-0l-23.358,127.376l-15.047,-0l-0.962,-24.058Zm-13.998,-103.318l20.384,104.28l0.437,23.096l-13.822,-0l-21.696,-106.643l1.837,-20.733l12.86,-0Z" style="fill:#fff;fill-rule:nonzero;"/><path d="M569.628,100.905l-29.132,107.255l-24.67,-0l40.155,-127.376l15.397,-0l-1.75,20.121Zm23.009,107.255l-29.132,-107.255l-2.012,-20.121l15.572,-0l40.33,127.376l-24.758,-0Zm0.787,-47.416l0,19.509l-58.439,-0l-0,-19.509l58.439,-0Z" style="fill:#fff;fill-rule:nonzero;"/><path d="M659.527,80.784l-0,127.376l-23.271,-0l0,-127.376l23.271,-0Zm32.106,-0l0,19.596l-86.959,0l0,-19.596l86.959,-0Z" style="fill:#fff;fill-rule:nonzero;"/><path d="M770.421,188.651l0,19.509l-55.29,-0l0,-19.509l55.29,0Zm-48.553,-107.867l-0,127.376l-23.446,-0l0,-127.376l23.446,-0Zm41.117,52.315l0,18.984l-47.854,-0l0,-18.984l47.854,-0Zm7.086,-52.315l0,19.596l-54.94,0l0,-19.596l54.94,-0Z" style="fill:#fff;fill-rule:nonzero;"/><path d="M777.735,80.784l39.63,-0c8.457,-0 15.659,1.458 21.608,4.374c5.949,2.916 10.484,7.232 13.604,12.947c3.12,5.716 4.68,12.744 4.68,21.084c0,6.649 -0.947,12.408 -2.843,17.278c-1.895,4.87 -4.578,8.938 -8.048,12.204c-3.47,3.266 -7.655,5.803 -12.554,7.611l-7.086,4.024l-32.807,0l-0.087,-19.509l23.008,0c3.791,0 6.955,-0.845 9.492,-2.537c2.537,-1.691 4.432,-4.038 5.686,-7.042c1.254,-3.004 1.881,-6.459 1.881,-10.367c0,-4.257 -0.568,-7.917 -1.706,-10.979c-1.137,-3.062 -2.916,-5.409 -5.336,-7.042c-2.42,-1.633 -5.584,-2.45 -9.492,-2.45l-16.185,0l0,107.78l-23.445,-0l-0,-127.376Zm58.614,127.376l-23.883,-57.039l24.583,-0l24.32,55.814l0,1.225l-25.02,-0Z" style="fill:#fff;fill-rule:nonzero;"/><path d="M893.528,184.627l20.296,-103.843l13.036,-0l1.837,20.908l-22.046,106.468l-13.91,-0l0.787,-23.533Zm-9.973,-103.843l16.272,103.668l-1.05,23.708l-15.047,-0l-23.446,-127.376l23.271,-0Zm63.776,103.318l16.184,-103.318l23.183,-0l-23.358,127.376l-15.047,-0l-0.962,-24.058Zm-13.998,-103.318l20.384,104.28l0.437,23.096l-13.822,-0l-21.696,-106.643l1.837,-20.733l12.86,-0Z" style="fill:#fff;fill-rule:nonzero;"/><path d="M1080.71,134.324l0,21.433c0,8.982 -1.049,16.855 -3.149,23.621c-2.1,6.765 -5.132,12.408 -9.098,16.928c-3.966,4.52 -8.72,7.917 -14.26,10.192c-5.541,2.274 -11.665,3.412 -18.372,3.412c-6.765,-0 -12.918,-1.138 -18.459,-3.412c-5.54,-2.275 -10.308,-5.672 -14.303,-10.192c-3.995,-4.52 -7.087,-10.163 -9.274,-16.928c-2.187,-6.766 -3.28,-14.639 -3.28,-23.621l-0,-21.433c-0,-9.157 1.079,-17.176 3.237,-24.058c2.158,-6.882 5.234,-12.627 9.229,-17.235c3.995,-4.607 8.763,-8.092 14.304,-10.454c5.54,-2.362 11.664,-3.543 18.371,-3.543c6.766,-0 12.904,1.181 18.416,3.543c5.511,2.362 10.264,5.847 14.259,10.454c3.996,4.608 7.057,10.353 9.186,17.235c2.129,6.882 3.193,14.901 3.193,24.058Zm-23.27,21.433l-0,-21.608c-0,-6.241 -0.467,-11.606 -1.4,-16.097c-0.933,-4.491 -2.333,-8.151 -4.199,-10.979c-1.867,-2.829 -4.156,-4.914 -6.868,-6.256c-2.712,-1.341 -5.817,-2.012 -9.317,-2.012c-3.557,0 -6.692,0.671 -9.404,2.012c-2.712,1.342 -4.987,3.427 -6.824,6.256c-1.837,2.828 -3.222,6.488 -4.155,10.979c-0.934,4.491 -1.4,9.856 -1.4,16.097l-0,21.608c-0,6.124 0.466,11.373 1.4,15.747c0.933,4.374 2.347,7.932 4.243,10.673c1.895,2.741 4.199,4.768 6.911,6.08c2.712,1.313 5.847,1.969 9.404,1.969c3.5,-0 6.605,-0.656 9.317,-1.969c2.712,-1.312 4.987,-3.339 6.824,-6.08c1.837,-2.741 3.208,-6.299 4.112,-10.673c0.904,-4.374 1.356,-9.623 1.356,-15.747Z" style="fill:#fff;fill-rule:nonzero;"/><path d="M1161.51,188.651l0,19.509l-52.927,-0l-0,-19.509l52.927,0Zm-46.191,-107.867l-0,127.376l-23.446,-0l0,-127.376l23.446,-0Z" style="fill:#fff;fill-rule:nonzero;"/><path d="M1191.92,80.784l-0,127.376l-23.446,-0l0,-127.376l23.446,-0Zm40.592,54.852l0,19.509l-46.279,-0l0,-19.509l46.279,-0Zm5.424,-54.852l0,19.596l-51.703,0l0,-19.596l51.703,-0Z" style="fill:#fff;fill-rule:nonzero;"/><path d="M1300.77,80.784l-0,127.376l-23.446,-0l0,-127.376l23.446,-0Zm40.592,54.852l0,19.509l-46.278,-0l-0,-19.509l46.278,-0Zm5.424,-54.852l0,19.596l-51.702,0l-0,-19.596l51.702,-0Z" style="fill:#fff;fill-rule:nonzero;"/><path d="M1382.53,100.905l-29.132,107.255l-24.67,-0l40.155,-127.376l15.397,-0l-1.75,20.121Zm23.008,107.255l-29.132,-107.255l-2.012,-20.121l15.572,-0l40.33,127.376l-24.758,-0Zm0.788,-47.416l-0,19.509l-58.439,-0l-0,-19.509l58.439,-0Z" style="fill:#fff;fill-rule:nonzero;"/><path d="M1442.77,80.784l20.908,-0l27.733,90.983l27.469,-90.983l18.984,-0l-37.793,127.376l-17.496,-0l-39.805,-127.376Zm-8.136,-0l19.683,-0l3.062,82.584l0,44.792l-22.745,-0l-0,-127.376Zm93.607,-0l19.771,-0l0,127.376l-22.745,-0l-0,-44.792l2.974,-82.584Z" style="fill:#fff;fill-rule:nonzero;"/><rect x="1562.41" y="80.784" width="23.271" height="127.376" style="fill:#fff;fill-rule:nonzero;"/><path d="M1669.63,188.651l0,19.509l-52.927,-0l-0,-19.509l52.927,0Zm-46.191,-107.867l-0,127.376l-23.446,-0l0,-127.376l23.446,-0Z" style="fill:#fff;fill-rule:nonzero;"/><path d="M1669.25,80.784l20.909,58.876l20.821,-58.876l25.72,-0l-34.731,80.835l0,46.541l-23.62,-0l-0,-46.541l-34.731,-80.835l25.632,-0Z" style="fill:#fff;fill-rule:nonzero;"/><path d="M418.228,285.48l11.683,-47.848l4.028,0l-2.999,14.323l-12.488,50.846l-3.894,0l3.67,-17.321Zm-13.293,-47.848l9.757,47.4l2.91,17.769l-4.029,0l-13.83,-65.169l5.192,0Zm44.625,47.355l9.623,-47.355l5.192,0l-13.831,65.169l-4.028,0l3.044,-17.814Zm-15.129,-47.355l11.503,47.848l3.626,17.321l-3.894,0l-12.175,-50.846l-3.043,-14.323l3.983,0Z" style="fill-rule:nonzero;"/><path d="M505.239,298.012l0,4.789l-30.436,0l0,-4.789l30.436,0Zm-29.003,-60.38l-0,65.169l-5.148,0l0,-65.169l5.148,0Zm25.199,29.138l-0,4.834l-26.632,0l0,-4.834l26.632,0Zm3.581,-29.138l-0,4.789l-30.213,0l0,-4.789l30.213,0Z" style="fill-rule:nonzero;"/><path d="M548.61,271.47l-15.084,-0l-0.09,-4.744l13.115,-0c2.596,-0 4.811,-0.463 6.646,-1.388c1.835,-0.925 3.238,-2.298 4.208,-4.118c0.97,-1.82 1.454,-4.043 1.454,-6.669c0,-2.745 -0.47,-5.013 -1.41,-6.803c-0.939,-1.791 -2.357,-3.126 -4.252,-4.006c-1.894,-0.881 -4.259,-1.321 -7.094,-1.321l-11.324,0l-0,60.38l-5.147,0l-0,-65.169l16.471,0c2.775,0 5.267,0.336 7.475,1.007c2.208,0.672 4.088,1.701 5.639,3.089c1.552,1.387 2.738,3.155 3.559,5.304c0.82,2.148 1.231,4.699 1.231,7.653c-0,2.686 -0.515,5.103 -1.544,7.251c-1.03,2.149 -2.485,3.909 -4.365,5.282c-1.879,1.372 -4.102,2.223 -6.669,2.551l-2.819,1.701Zm-0.359,31.331l-16.516,0l2.731,-4.789l13.785,0c2.626,0 4.864,-0.552 6.714,-1.656c1.85,-1.104 3.275,-2.656 4.275,-4.655c0.999,-1.999 1.499,-4.416 1.499,-7.251c0,-2.447 -0.432,-4.647 -1.298,-6.602c-0.865,-1.954 -2.193,-3.506 -3.983,-4.655c-1.791,-1.149 -4.073,-1.723 -6.848,-1.723l-9.758,-0l0.09,-4.744l13.651,-0l0.985,1.7c2.506,0.329 4.677,1.239 6.512,2.731c1.835,1.492 3.26,3.386 4.275,5.684c1.014,2.298 1.522,4.804 1.522,7.52c-0,3.968 -0.739,7.318 -2.216,10.048c-1.477,2.73 -3.536,4.812 -6.177,6.244c-2.641,1.432 -5.721,2.148 -9.243,2.148Z" style="fill-rule:nonzero;"/><path d="M607.646,237.632l5.103,0l-0,45.923c-0,4.894 -0.873,8.81 -2.619,11.749c-1.745,2.939 -4.088,5.08 -7.027,6.423c-2.939,1.343 -6.184,2.014 -9.735,2.014c-3.64,0 -6.923,-0.671 -9.847,-2.014c-2.924,-1.343 -5.237,-3.484 -6.938,-6.423c-1.701,-2.939 -2.551,-6.855 -2.551,-11.749l0,-45.923l5.103,0l-0,45.923c-0,3.79 0.619,6.803 1.857,9.041c1.238,2.238 2.924,3.857 5.058,4.857c2.133,0.999 4.573,1.499 7.318,1.499c2.805,0 5.274,-0.5 7.408,-1.499c2.133,-1 3.812,-2.619 5.035,-4.857c1.223,-2.238 1.835,-5.251 1.835,-9.041l0,-45.923Z" style="fill-rule:nonzero;"/><rect x="624.251" y="237.632" width="5.192" height="65.169" style="fill-rule:nonzero;"/><path d="M673.843,298.012l0,4.789l-28.198,0l0,-4.789l28.198,0Zm-26.766,-60.38l0,65.169l-5.192,0l0,-65.169l5.192,0Z" style="fill-rule:nonzero;"/><path d="M695.551,302.801l-12.219,0l0.044,-4.789l12.175,0c3.909,0 7.236,-0.82 9.981,-2.462c2.745,-1.641 4.842,-4.043 6.289,-7.206c1.447,-3.163 2.171,-7.027 2.171,-11.592l-0,-13.204c-0,-3.462 -0.411,-6.513 -1.231,-9.154c-0.821,-2.64 -2.014,-4.849 -3.581,-6.624c-1.567,-1.775 -3.469,-3.111 -5.707,-4.006c-2.238,-0.895 -4.759,-1.343 -7.564,-1.343l-12.801,0l-0,-4.789l12.801,0c3.461,0 6.609,0.567 9.444,1.701c2.835,1.134 5.274,2.805 7.318,5.013c2.044,2.208 3.618,4.923 4.722,8.146c1.104,3.223 1.656,6.938 1.656,11.145l0,13.115c0,4.207 -0.552,7.929 -1.656,11.167c-1.104,3.238 -2.685,5.96 -4.744,8.169c-2.059,2.208 -4.536,3.879 -7.43,5.013c-2.895,1.133 -6.117,1.7 -9.668,1.7Zm-9.802,-65.169l-0,65.169l-5.148,0l0,-65.169l5.148,0Z" style="fill-rule:nonzero;"/><path d="M764.165,241.571l-18.799,61.23l-5.281,0l20.723,-65.169l3.626,0l-0.269,3.939Zm16.83,61.23l-18.799,-61.23l-0.224,-3.939l3.581,0l20.768,65.169l-5.326,0Zm-2.91,-23.051l0,4.834l-29.406,0l-0,-4.834l29.406,0Z" style="fill-rule:nonzero;"/><path d="M807.178,302.801l-12.219,0l0.044,-4.789l12.175,0c3.909,0 7.236,-0.82 9.981,-2.462c2.745,-1.641 4.842,-4.043 6.289,-7.206c1.447,-3.163 2.171,-7.027 2.171,-11.592l-0,-13.204c-0,-3.462 -0.411,-6.513 -1.231,-9.154c-0.821,-2.64 -2.014,-4.849 -3.581,-6.624c-1.566,-1.775 -3.469,-3.111 -5.707,-4.006c-2.238,-0.895 -4.759,-1.343 -7.564,-1.343l-12.801,0l-0,-4.789l12.801,0c3.461,0 6.609,0.567 9.444,1.701c2.835,1.134 5.274,2.805 7.318,5.013c2.044,2.208 3.618,4.923 4.722,8.146c1.104,3.223 1.656,6.938 1.656,11.145l0,13.115c0,4.207 -0.552,7.929 -1.656,11.167c-1.104,3.238 -2.685,5.96 -4.744,8.169c-2.059,2.208 -4.536,3.879 -7.43,5.013c-2.895,1.133 -6.117,1.7 -9.668,1.7Zm-9.802,-65.169l-0,65.169l-5.148,0l0,-65.169l5.148,0Z" style="fill-rule:nonzero;"/><path d="M856.86,294.655l17.008,-57.023l5.595,0l-20.365,65.169l-4.118,0l1.88,-8.146Zm-17.277,-57.023l16.919,57.023l1.88,8.146l-4.073,0l-20.321,-65.169l5.595,0Z" style="fill-rule:nonzero;"/><path d="M919.522,298.012l-0,4.789l-30.436,0l-0,-4.789l30.436,0Zm-29.004,-60.38l-0,65.169l-5.147,0l-0,-65.169l5.147,0Zm25.199,29.138l0,4.834l-26.631,0l-0,-4.834l26.631,0Zm3.581,-29.138l0,4.789l-30.212,0l-0,-4.789l30.212,0Z" style="fill-rule:nonzero;"/><path d="M968.13,237.632l-0,65.169l-5.148,0l-30.66,-55.546l0,55.546l-5.192,0l0,-65.169l5.192,0l30.705,55.546l0,-55.546l5.103,0Z" style="fill-rule:nonzero;"/><path d="M997.222,237.632l0,65.169l-5.102,0l-0,-65.169l5.102,0Zm18.531,0l-0,4.789l-42.119,0l0,-4.789l42.119,0Z" style="fill-rule:nonzero;"/><path d="M1055.14,237.632l5.102,0l0,45.923c0,4.894 -0.872,8.81 -2.618,11.749c-1.746,2.939 -4.088,5.08 -7.027,6.423c-2.939,1.343 -6.184,2.014 -9.735,2.014c-3.641,0 -6.923,-0.671 -9.847,-2.014c-2.925,-1.343 -5.237,-3.484 -6.938,-6.423c-1.701,-2.939 -2.551,-6.855 -2.551,-11.749l-0,-45.923l5.102,0l0,45.923c0,3.79 0.619,6.803 1.858,9.041c1.238,2.238 2.924,3.857 5.058,4.857c2.133,0.999 4.572,1.499 7.318,1.499c2.805,0 5.274,-0.5 7.407,-1.499c2.134,-1 3.812,-2.619 5.036,-4.857c1.223,-2.238 1.835,-5.251 1.835,-9.041l-0,-45.923Z" style="fill-rule:nonzero;"/><path d="M1070.76,237.632l17.859,0c3.849,0 7.169,0.739 9.959,2.216c2.79,1.477 4.938,3.64 6.445,6.49c1.507,2.849 2.261,6.348 2.261,10.496c-0,3.073 -0.538,5.863 -1.612,8.37c-1.074,2.506 -2.559,4.595 -4.453,6.266c-1.895,1.671 -4.111,2.82 -6.647,3.446l-1.701,0.761l-18.62,0l-0.089,-4.789l15.307,0c2.835,0 5.192,-0.664 7.072,-1.992c1.88,-1.328 3.29,-3.058 4.23,-5.192c0.94,-2.133 1.41,-4.423 1.41,-6.87c-0,-2.954 -0.515,-5.513 -1.544,-7.676c-1.03,-2.164 -2.551,-3.827 -4.566,-4.991c-2.014,-1.164 -4.498,-1.746 -7.452,-1.746l-12.712,0l0,60.38l-5.147,0l0,-65.169Zm33.435,65.169l-14.009,-29.183l5.46,-0.044l14.01,28.645l-0,0.582l-5.461,0Z" style="fill-rule:nonzero;"/><path d="M1151.55,298.012l-0,4.789l-30.437,0l0,-4.789l30.437,0Zm-29.004,-60.38l-0,65.169l-5.148,0l0,-65.169l5.148,0Zm25.199,29.138l0,4.834l-26.632,0l0,-4.834l26.632,0Zm3.581,-29.138l-0,4.789l-30.213,0l0,-4.789l30.213,0Z" style="fill-rule:nonzero;"/><path d="M1194.34,241.571l-18.799,61.23l-5.282,0l20.724,-65.169l3.625,0l-0.268,3.939Zm16.829,61.23l-18.799,-61.23l-0.223,-3.939l3.58,0l20.769,65.169l-5.327,0Zm-2.909,-23.051l-0,4.834l-29.407,0l0,-4.834l29.407,0Z" style="fill-rule:nonzero;"/><path d="M1263.4,237.632l0,65.169l-5.147,0l-30.66,-55.546l0,55.546l-5.192,0l0,-65.169l5.192,0l30.705,55.546l-0,-55.546l5.102,0Z" style="fill-rule:nonzero;"/><path d="M1290.03,302.801l-12.219,0l0.045,-4.789l12.174,0c3.909,0 7.236,-0.82 9.982,-2.462c2.745,-1.641 4.841,-4.043 6.288,-7.206c1.448,-3.163 2.171,-7.027 2.171,-11.592l0,-13.204c0,-3.462 -0.41,-6.513 -1.231,-9.154c-0.82,-2.64 -2.014,-4.849 -3.58,-6.624c-1.567,-1.775 -3.469,-3.111 -5.707,-4.006c-2.238,-0.895 -4.76,-1.343 -7.565,-1.343l-12.801,0l0,-4.789l12.801,0c3.462,0 6.61,0.567 9.445,1.701c2.834,1.134 5.274,2.805 7.318,5.013c2.044,2.208 3.618,4.923 4.722,8.146c1.104,3.223 1.656,6.938 1.656,11.145l-0,13.115c-0,4.207 -0.552,7.929 -1.656,11.167c-1.104,3.238 -2.686,5.96 -4.745,8.169c-2.059,2.208 -4.535,3.879 -7.43,5.013c-2.894,1.133 -6.117,1.7 -9.668,1.7Zm-9.802,-65.169l0,65.169l-5.147,0l-0,-65.169l5.147,0Z" style="fill-rule:nonzero;"/><path d="M1345.4,237.632l-0,65.169l-5.147,0l-0,-65.169l5.147,0Zm24.976,29.899l-0,4.879l-26.543,-0l0,-4.879l26.543,0Zm3.759,-29.899l0,4.789l-30.302,0l0,-4.789l30.302,0Z" style="fill-rule:nonzero;"/><path d="M1381.29,237.632l17.859,0c3.849,0 7.169,0.739 9.959,2.216c2.79,1.477 4.938,3.64 6.445,6.49c1.507,2.849 2.261,6.348 2.261,10.496c-0,3.073 -0.538,5.863 -1.612,8.37c-1.074,2.506 -2.559,4.595 -4.453,6.266c-1.895,1.671 -4.111,2.82 -6.647,3.446l-1.701,0.761l-18.62,0l-0.089,-4.789l15.307,0c2.835,0 5.192,-0.664 7.072,-1.992c1.88,-1.328 3.29,-3.058 4.23,-5.192c0.94,-2.133 1.41,-4.423 1.41,-6.87c-0,-2.954 -0.515,-5.513 -1.544,-7.676c-1.03,-2.164 -2.551,-3.827 -4.566,-4.991c-2.014,-1.164 -4.498,-1.746 -7.452,-1.746l-12.712,0l0,60.38l-5.147,0l0,-65.169Zm33.435,65.169l-14.009,-29.183l5.46,-0.044l14.01,28.645l-0,0.582l-5.461,0Z" style="fill-rule:nonzero;"/><rect x="1428.83" y="237.632" width="5.192" height="65.169" style="fill-rule:nonzero;"/><path d="M1480.61,298.012l0,4.789l-30.436,0l-0,-4.789l30.436,0Zm-29.004,-60.38l0,65.169l-5.147,0l-0,-65.169l5.147,0Zm25.2,29.138l-0,4.834l-26.632,0l-0,-4.834l26.632,0Zm3.58,-29.138l0,4.789l-30.212,0l-0,-4.789l30.212,0Z" style="fill-rule:nonzero;"/><path d="M1529.22,237.632l-0,65.169l-5.147,0l-30.66,-55.546l-0,55.546l-5.193,0l0,-65.169l5.193,0l30.704,55.546l0,-55.546l5.103,0Z" style="fill-rule:nonzero;"/><path d="M1555.85,302.801l-12.219,0l0.044,-4.789l12.175,0c3.909,0 7.236,-0.82 9.981,-2.462c2.745,-1.641 4.841,-4.043 6.289,-7.206c1.447,-3.163 2.171,-7.027 2.171,-11.592l-0,-13.204c-0,-3.462 -0.411,-6.513 -1.231,-9.154c-0.821,-2.64 -2.015,-4.849 -3.581,-6.624c-1.567,-1.775 -3.469,-3.111 -5.707,-4.006c-2.238,-0.895 -4.759,-1.343 -7.564,-1.343l-12.801,0l-0,-4.789l12.801,0c3.461,0 6.609,0.567 9.444,1.701c2.835,1.134 5.274,2.805 7.318,5.013c2.044,2.208 3.618,4.923 4.722,8.146c1.104,3.223 1.656,6.938 1.656,11.145l0,13.115c0,4.207 -0.552,7.929 -1.656,11.167c-1.104,3.238 -2.685,5.96 -4.744,8.169c-2.059,2.208 -4.536,3.879 -7.43,5.013c-2.895,1.133 -6.117,1.7 -9.668,1.7Zm-9.802,-65.169l-0,65.169l-5.148,0l0,-65.169l5.148,0Z" style="fill-rule:nonzero;"/><path d="M1619.9,286.688c0,-1.79 -0.238,-3.364 -0.716,-4.722c-0.477,-1.358 -1.268,-2.596 -2.372,-3.715c-1.104,-1.119 -2.596,-2.163 -4.476,-3.133c-1.88,-0.97 -4.222,-1.932 -7.027,-2.887c-2.745,-0.925 -5.215,-1.94 -7.408,-3.044c-2.193,-1.104 -4.073,-2.372 -5.639,-3.804c-1.567,-1.433 -2.761,-3.111 -3.581,-5.036c-0.821,-1.924 -1.231,-4.17 -1.231,-6.736c-0,-2.506 0.448,-4.797 1.343,-6.87c0.895,-2.074 2.171,-3.857 3.827,-5.349c1.656,-1.492 3.603,-2.641 5.841,-3.447c2.238,-0.805 4.714,-1.208 7.43,-1.208c3.879,-0 7.228,0.873 10.048,2.618c2.82,1.746 4.991,4.088 6.513,7.028c1.521,2.939 2.282,6.214 2.282,9.824l-5.102,0c-0,-2.835 -0.53,-5.356 -1.589,-7.564c-1.059,-2.208 -2.619,-3.946 -4.677,-5.215c-2.059,-1.268 -4.551,-1.902 -7.475,-1.902c-2.895,0 -5.334,0.545 -7.318,1.634c-1.985,1.089 -3.469,2.536 -4.454,4.341c-0.985,1.806 -1.477,3.798 -1.477,5.976c0,1.551 0.239,2.984 0.716,4.297c0.478,1.313 1.276,2.521 2.395,3.625c1.119,1.104 2.603,2.141 4.453,3.111c1.85,0.97 4.088,1.872 6.714,2.708c2.954,0.955 5.558,2.007 7.811,3.155c2.253,1.149 4.147,2.492 5.684,4.029c1.537,1.536 2.701,3.304 3.491,5.304c0.791,1.999 1.186,4.297 1.186,6.893c0,2.685 -0.462,5.08 -1.387,7.183c-0.925,2.104 -2.231,3.894 -3.917,5.372c-1.685,1.477 -3.685,2.603 -5.997,3.379c-2.313,0.776 -4.842,1.164 -7.587,1.164c-2.447,-0 -4.879,-0.381 -7.296,-1.142c-2.417,-0.761 -4.625,-1.932 -6.624,-3.513c-1.999,-1.582 -3.596,-3.604 -4.789,-6.065c-1.194,-2.462 -1.791,-5.409 -1.791,-8.84l5.148,-0c-0,2.715 0.455,5.02 1.365,6.915c0.91,1.895 2.096,3.417 3.558,4.566c1.462,1.148 3.103,1.984 4.924,2.506c1.82,0.522 3.655,0.783 5.505,0.783c2.805,0 5.229,-0.514 7.273,-1.544c2.044,-1.029 3.626,-2.447 4.745,-4.252c1.119,-1.805 1.678,-3.946 1.678,-6.423Z" style="fill-rule:nonzero;"/><path d="M1669.4,266.77l0,4.834l-32.54,0l0,-4.834l32.54,0Zm-31.421,-29.138l0,65.169l-5.147,0l0,-65.169l5.147,0Zm35.673,0l0,65.169l-5.147,0l0,-65.169l5.147,0Z" style="fill-rule:nonzero;"/><rect x="1686.23" y="237.632" width="5.192" height="65.169" style="fill-rule:nonzero;"/><path d="M1722.8,276.304l-15.441,-0l-0,-4.834l15.441,-0c3.193,-0 5.774,-0.634 7.744,-1.902c1.969,-1.268 3.409,-2.977 4.319,-5.125c0.91,-2.149 1.365,-4.566 1.365,-7.251c0,-2.656 -0.455,-5.103 -1.365,-7.341c-0.91,-2.238 -2.35,-4.035 -4.319,-5.393c-1.97,-1.358 -4.551,-2.037 -7.744,-2.037l-13.785,0l-0,60.38l-5.148,0l0,-65.169l18.933,0c4.029,0 7.423,0.821 10.183,2.462c2.76,1.641 4.849,3.924 6.266,6.848c1.418,2.924 2.126,6.311 2.126,10.16c0,3.999 -0.708,7.438 -2.126,10.317c-1.417,2.88 -3.498,5.08 -6.244,6.602c-2.745,1.522 -6.146,2.283 -10.205,2.283Z" style="fill-rule:nonzero;"/><path d="M414.062,281.313l11.682,-47.848l4.028,0l-2.999,14.323l-12.487,50.847l-3.895,-0l3.671,-17.322Zm-13.294,-47.848l9.758,47.4l2.909,17.77l-4.028,-0l-13.831,-65.17l5.192,0Zm44.625,47.356l9.623,-47.356l5.192,0l-13.83,65.17l-4.029,-0l3.044,-17.814Zm-15.128,-47.356l11.503,47.848l3.625,17.322l-3.894,-0l-12.174,-50.847l-3.044,-14.323l3.984,0Z" style="fill:#fff;fill-rule:nonzero;"/><path d="M501.073,293.845l-0,4.79l-30.436,-0l-0,-4.79l30.436,0Zm-29.004,-60.38l-0,65.17l-5.147,-0l-0,-65.17l5.147,0Zm25.199,29.139l0,4.834l-26.631,-0l-0,-4.834l26.631,-0Zm3.581,-29.139l-0,4.79l-30.212,-0l-0,-4.79l30.212,0Z" style="fill:#fff;fill-rule:nonzero;"/><path d="M544.443,267.303l-15.084,0l-0.089,-4.744l13.114,-0c2.596,-0 4.812,-0.463 6.647,-1.388c1.835,-0.925 3.237,-2.297 4.207,-4.118c0.97,-1.82 1.455,-4.043 1.455,-6.669c-0,-2.745 -0.47,-5.013 -1.41,-6.803c-0.94,-1.79 -2.357,-3.126 -4.252,-4.006c-1.895,-0.88 -4.26,-1.32 -7.095,-1.32l-11.324,-0l0,60.38l-5.147,-0l0,-65.17l16.471,0c2.775,0 5.267,0.336 7.475,1.008c2.208,0.671 4.088,1.7 5.64,3.088c1.551,1.387 2.738,3.155 3.558,5.304c0.821,2.148 1.231,4.7 1.231,7.654c0,2.685 -0.515,5.102 -1.544,7.251c-1.03,2.148 -2.484,3.909 -4.364,5.281c-1.88,1.373 -4.103,2.223 -6.669,2.551l-2.82,1.701Zm-0.358,31.332l-16.516,-0l2.73,-4.79l13.786,0c2.626,0 4.864,-0.552 6.714,-1.656c1.85,-1.104 3.275,-2.655 4.274,-4.655c1,-1.999 1.5,-4.416 1.5,-7.251c-0,-2.446 -0.433,-4.647 -1.298,-6.602c-0.866,-1.954 -2.194,-3.506 -3.984,-4.654c-1.79,-1.149 -4.073,-1.724 -6.848,-1.724l-9.758,0l0.09,-4.744l13.651,-0l0.985,1.701c2.507,0.328 4.677,1.238 6.513,2.73c1.835,1.492 3.26,3.387 4.274,5.684c1.015,2.298 1.522,4.805 1.522,7.52c-0,3.969 -0.739,7.318 -2.216,10.048c-1.477,2.731 -3.536,4.812 -6.176,6.244c-2.641,1.433 -5.722,2.149 -9.243,2.149Z" style="fill:#fff;fill-rule:nonzero;"/><path d="M603.479,233.465l5.103,0l-0,45.923c-0,4.894 -0.873,8.81 -2.618,11.75c-1.746,2.939 -4.088,5.08 -7.028,6.422c-2.939,1.343 -6.184,2.015 -9.735,2.015c-3.64,-0 -6.922,-0.672 -9.847,-2.015c-2.924,-1.342 -5.237,-3.483 -6.937,-6.422c-1.701,-2.94 -2.552,-6.856 -2.552,-11.75l0,-45.923l5.103,0l-0,45.923c-0,3.79 0.619,6.804 1.857,9.042c1.239,2.238 2.925,3.856 5.058,4.856c2.134,1 4.573,1.499 7.318,1.499c2.805,0 5.274,-0.499 7.408,-1.499c2.133,-1 3.812,-2.618 5.035,-4.856c1.224,-2.238 1.835,-5.252 1.835,-9.042l0,-45.923Z" style="fill:#fff;fill-rule:nonzero;"/><rect x="620.084" y="233.465" width="5.192" height="65.169" style="fill:#fff;fill-rule:nonzero;"/><path d="M669.677,293.845l-0,4.79l-28.198,-0l-0,-4.79l28.198,0Zm-26.766,-60.38l-0,65.17l-5.192,-0l-0,-65.17l5.192,0Z" style="fill:#fff;fill-rule:nonzero;"/><path d="M691.384,298.635l-12.219,-0l0.045,-4.79l12.174,0c3.909,0 7.236,-0.82 9.981,-2.461c2.746,-1.641 4.842,-4.044 6.289,-7.206c1.447,-3.163 2.171,-7.028 2.171,-11.593l-0,-13.204c-0,-3.461 -0.41,-6.512 -1.231,-9.153c-0.821,-2.641 -2.014,-4.849 -3.581,-6.625c-1.566,-1.775 -3.468,-3.11 -5.706,-4.006c-2.238,-0.895 -4.76,-1.342 -7.565,-1.342l-12.801,-0l0,-4.79l12.801,0c3.462,0 6.61,0.567 9.444,1.701c2.835,1.134 5.275,2.805 7.319,5.013c2.044,2.208 3.618,4.924 4.722,8.146c1.104,3.223 1.656,6.938 1.656,11.145l-0,13.115c-0,4.207 -0.552,7.93 -1.656,11.167c-1.104,3.238 -2.686,5.961 -4.745,8.169c-2.059,2.208 -4.535,3.879 -7.43,5.013c-2.894,1.134 -6.117,1.701 -9.668,1.701Zm-9.802,-65.17l-0,65.17l-5.147,-0l-0,-65.17l5.147,0Z" style="fill:#fff;fill-rule:nonzero;"/><path d="M759.998,237.404l-18.798,61.231l-5.282,-0l20.724,-65.17l3.625,0l-0.269,3.939Zm16.83,61.231l-18.799,-61.231l-0.224,-3.939l3.581,0l20.768,65.17l-5.326,-0Zm-2.909,-23.051l-0,4.834l-29.407,-0l-0,-4.834l29.407,-0Z" style="fill:#fff;fill-rule:nonzero;"/><path d="M803.011,298.635l-12.219,-0l0.045,-4.79l12.174,0c3.909,0 7.236,-0.82 9.982,-2.461c2.745,-1.641 4.841,-4.044 6.288,-7.206c1.447,-3.163 2.171,-7.028 2.171,-11.593l0,-13.204c0,-3.461 -0.41,-6.512 -1.231,-9.153c-0.82,-2.641 -2.014,-4.849 -3.581,-6.625c-1.566,-1.775 -3.468,-3.11 -5.706,-4.006c-2.238,-0.895 -4.76,-1.342 -7.565,-1.342l-12.801,-0l0,-4.79l12.801,0c3.462,0 6.61,0.567 9.445,1.701c2.834,1.134 5.274,2.805 7.318,5.013c2.044,2.208 3.618,4.924 4.722,8.146c1.104,3.223 1.656,6.938 1.656,11.145l-0,13.115c-0,4.207 -0.552,7.93 -1.656,11.167c-1.104,3.238 -2.686,5.961 -4.745,8.169c-2.059,2.208 -4.535,3.879 -7.43,5.013c-2.894,1.134 -6.117,1.701 -9.668,1.701Zm-9.802,-65.17l0,65.17l-5.147,-0l-0,-65.17l5.147,0Z" style="fill:#fff;fill-rule:nonzero;"/><path d="M852.693,290.489l17.009,-57.024l5.595,0l-20.366,65.17l-4.118,-0l1.88,-8.146Zm-17.277,-57.024l16.919,57.024l1.88,8.146l-4.073,-0l-20.321,-65.17l5.595,0Z" style="fill:#fff;fill-rule:nonzero;"/><path d="M915.355,293.845l0,4.79l-30.436,-0l0,-4.79l30.436,0Zm-29.004,-60.38l0,65.17l-5.147,-0l0,-65.17l5.147,0Zm25.2,29.139l-0,4.834l-26.632,-0l0,-4.834l26.632,-0Zm3.58,-29.139l0,4.79l-30.212,-0l0,-4.79l30.212,0Z" style="fill:#fff;fill-rule:nonzero;"/><path d="M963.963,233.465l-0,65.17l-5.147,-0l-30.66,-55.546l-0,55.546l-5.192,-0l-0,-65.17l5.192,0l30.704,55.546l0,-55.546l5.103,0Z" style="fill:#fff;fill-rule:nonzero;"/><path d="M993.056,233.465l-0,65.17l-5.103,-0l0,-65.17l5.103,0Zm18.53,0l-0,4.79l-42.118,-0l-0,-4.79l42.118,0Z" style="fill:#fff;fill-rule:nonzero;"/><path d="M1050.97,233.465l5.103,0l-0,45.923c-0,4.894 -0.873,8.81 -2.619,11.75c-1.745,2.939 -4.088,5.08 -7.027,6.422c-2.939,1.343 -6.184,2.015 -9.735,2.015c-3.64,-0 -6.923,-0.672 -9.847,-2.015c-2.924,-1.342 -5.237,-3.483 -6.938,-6.422c-1.7,-2.94 -2.551,-6.856 -2.551,-11.75l0,-45.923l5.103,0l-0,45.923c-0,3.79 0.619,6.804 1.857,9.042c1.238,2.238 2.924,3.856 5.058,4.856c2.133,1 4.573,1.499 7.318,1.499c2.805,0 5.274,-0.499 7.408,-1.499c2.133,-1 3.812,-2.618 5.035,-4.856c1.223,-2.238 1.835,-5.252 1.835,-9.042l0,-45.923Z" style="fill:#fff;fill-rule:nonzero;"/><path d="M1066.59,233.465l17.859,0c3.85,0 7.169,0.739 9.959,2.216c2.79,1.477 4.939,3.64 6.446,6.49c1.506,2.85 2.26,6.348 2.26,10.496c-0,3.074 -0.537,5.864 -1.611,8.37c-1.075,2.507 -2.559,4.595 -4.454,6.266c-1.895,1.671 -4.11,2.82 -6.647,3.447l-1.701,0.761l-18.619,-0l-0.09,-4.79l15.308,0c2.834,0 5.192,-0.663 7.072,-1.991c1.88,-1.328 3.289,-3.059 4.229,-5.192c0.94,-2.134 1.41,-4.424 1.41,-6.871c0,-2.954 -0.514,-5.513 -1.544,-7.676c-1.029,-2.163 -2.551,-3.827 -4.565,-4.991c-2.014,-1.163 -4.499,-1.745 -7.453,-1.745l-12.711,-0l-0,60.38l-5.148,-0l0,-65.17Zm33.435,65.17l-14.009,-29.183l5.46,-0.045l14.01,28.646l0,0.582l-5.461,-0Z" style="fill:#fff;fill-rule:nonzero;"/><path d="M1147.38,293.845l-0,4.79l-30.436,-0l-0,-4.79l30.436,0Zm-29.004,-60.38l-0,65.17l-5.147,-0l-0,-65.17l5.147,0Zm25.199,29.139l0,4.834l-26.631,-0l-0,-4.834l26.631,-0Zm3.581,-29.139l0,4.79l-30.212,-0l-0,-4.79l30.212,0Z" style="fill:#fff;fill-rule:nonzero;"/><path d="M1190.17,237.404l-18.799,61.231l-5.281,-0l20.723,-65.17l3.626,0l-0.269,3.939Zm16.83,61.231l-18.799,-61.231l-0.224,-3.939l3.581,0l20.768,65.17l-5.326,-0Zm-2.91,-23.051l0,4.834l-29.406,-0l-0,-4.834l29.406,-0Z" style="fill:#fff;fill-rule:nonzero;"/><path d="M1259.23,233.465l-0,65.17l-5.148,-0l-30.66,-55.546l0,55.546l-5.192,-0l0,-65.17l5.192,0l30.705,55.546l0,-55.546l5.103,0Z" style="fill:#fff;fill-rule:nonzero;"/><path d="M1285.87,298.635l-12.22,-0l0.045,-4.79l12.175,0c3.909,0 7.236,-0.82 9.981,-2.461c2.745,-1.641 4.841,-4.044 6.289,-7.206c1.447,-3.163 2.17,-7.028 2.17,-11.593l0,-13.204c0,-3.461 -0.41,-6.512 -1.23,-9.153c-0.821,-2.641 -2.015,-4.849 -3.581,-6.625c-1.567,-1.775 -3.469,-3.11 -5.707,-4.006c-2.238,-0.895 -4.759,-1.342 -7.564,-1.342l-12.801,-0l-0,-4.79l12.801,0c3.461,0 6.609,0.567 9.444,1.701c2.835,1.134 5.274,2.805 7.318,5.013c2.044,2.208 3.618,4.924 4.722,8.146c1.104,3.223 1.656,6.938 1.656,11.145l0,13.115c0,4.207 -0.552,7.93 -1.656,11.167c-1.104,3.238 -2.685,5.961 -4.744,8.169c-2.059,2.208 -4.536,3.879 -7.43,5.013c-2.895,1.134 -6.117,1.701 -9.668,1.701Zm-9.803,-65.17l0,65.17l-5.147,-0l0,-65.17l5.147,0Z" style="fill:#fff;fill-rule:nonzero;"/><path d="M1341.23,233.465l0,65.17l-5.147,-0l0,-65.17l5.147,0Zm24.976,29.9l-0,4.878l-26.542,0l-0,-4.878l26.542,-0Zm3.76,-29.9l-0,4.79l-30.302,-0l-0,-4.79l30.302,0Z" style="fill:#fff;fill-rule:nonzero;"/><path d="M1377.13,233.465l17.859,0c3.85,0 7.169,0.739 9.959,2.216c2.79,1.477 4.939,3.64 6.446,6.49c1.506,2.85 2.26,6.348 2.26,10.496c-0,3.074 -0.537,5.864 -1.611,8.37c-1.075,2.507 -2.559,4.595 -4.454,6.266c-1.895,1.671 -4.11,2.82 -6.647,3.447l-1.701,0.761l-18.619,-0l-0.09,-4.79l15.308,0c2.834,0 5.192,-0.663 7.072,-1.991c1.88,-1.328 3.289,-3.059 4.229,-5.192c0.94,-2.134 1.41,-4.424 1.41,-6.871c0,-2.954 -0.514,-5.513 -1.544,-7.676c-1.029,-2.163 -2.551,-3.827 -4.565,-4.991c-2.014,-1.163 -4.499,-1.745 -7.453,-1.745l-12.711,-0l-0,60.38l-5.148,-0l0,-65.17Zm33.435,65.17l-14.009,-29.183l5.46,-0.045l14.01,28.646l0,0.582l-5.461,-0Z" style="fill:#fff;fill-rule:nonzero;"/><rect x="1424.66" y="233.465" width="5.192" height="65.169" style="fill:#fff;fill-rule:nonzero;"/><path d="M1476.44,293.845l0,4.79l-30.436,-0l0,-4.79l30.436,0Zm-29.003,-60.38l-0,65.17l-5.148,-0l0,-65.17l5.148,0Zm25.199,29.139l-0,4.834l-26.632,-0l0,-4.834l26.632,-0Zm3.581,-29.139l-0,4.79l-30.213,-0l0,-4.79l30.213,0Z" style="fill:#fff;fill-rule:nonzero;"/><path d="M1525.05,233.465l0,65.17l-5.147,-0l-30.66,-55.546l-0,55.546l-5.192,-0l-0,-65.17l5.192,0l30.705,55.546l-0,-55.546l5.102,0Z" style="fill:#fff;fill-rule:nonzero;"/><path d="M1551.68,298.635l-12.219,-0l0.045,-4.79l12.174,0c3.909,0 7.236,-0.82 9.981,-2.461c2.746,-1.641 4.842,-4.044 6.289,-7.206c1.447,-3.163 2.171,-7.028 2.171,-11.593l-0,-13.204c-0,-3.461 -0.41,-6.512 -1.231,-9.153c-0.821,-2.641 -2.014,-4.849 -3.581,-6.625c-1.566,-1.775 -3.469,-3.11 -5.707,-4.006c-2.237,-0.895 -4.759,-1.342 -7.564,-1.342l-12.801,-0l0,-4.79l12.801,0c3.462,0 6.61,0.567 9.444,1.701c2.835,1.134 5.274,2.805 7.318,5.013c2.044,2.208 3.618,4.924 4.723,8.146c1.104,3.223 1.656,6.938 1.656,11.145l-0,13.115c-0,4.207 -0.552,7.93 -1.656,11.167c-1.105,3.238 -2.686,5.961 -4.745,8.169c-2.059,2.208 -4.536,3.879 -7.43,5.013c-2.894,1.134 -6.117,1.701 -9.668,1.701Zm-9.802,-65.17l-0,65.17l-5.147,-0l-0,-65.17l5.147,0Z" style="fill:#fff;fill-rule:nonzero;"/><path d="M1615.73,282.521c-0,-1.79 -0.239,-3.364 -0.716,-4.722c-0.478,-1.357 -1.269,-2.596 -2.373,-3.715c-1.104,-1.119 -2.596,-2.163 -4.476,-3.133c-1.879,-0.97 -4.222,-1.932 -7.027,-2.887c-2.745,-0.925 -5.214,-1.939 -7.407,-3.043c-2.194,-1.104 -4.074,-2.373 -5.64,-3.805c-1.567,-1.432 -2.76,-3.111 -3.581,-5.035c-0.82,-1.925 -1.231,-4.17 -1.231,-6.737c0,-2.506 0.448,-4.796 1.343,-6.87c0.895,-2.074 2.171,-3.857 3.827,-5.349c1.656,-1.492 3.603,-2.641 5.841,-3.446c2.238,-0.806 4.715,-1.209 7.43,-1.209c3.879,0 7.229,0.873 10.048,2.619c2.82,1.745 4.991,4.088 6.513,7.027c1.522,2.939 2.283,6.214 2.283,9.824l-5.103,0c0,-2.834 -0.53,-5.356 -1.589,-7.564c-1.059,-2.208 -2.618,-3.946 -4.677,-5.214c-2.059,-1.268 -4.551,-1.903 -7.475,-1.903c-2.894,0 -5.334,0.545 -7.318,1.634c-1.984,1.089 -3.469,2.537 -4.454,4.342c-0.984,1.805 -1.477,3.797 -1.477,5.975c0,1.552 0.239,2.984 0.717,4.297c0.477,1.313 1.275,2.521 2.394,3.626c1.119,1.104 2.604,2.14 4.454,3.11c1.85,0.97 4.088,1.873 6.714,2.708c2.954,0.955 5.557,2.007 7.81,3.156c2.253,1.149 4.148,2.491 5.684,4.028c1.537,1.537 2.701,3.305 3.492,5.304c0.79,1.999 1.186,4.297 1.186,6.893c-0,2.685 -0.463,5.08 -1.388,7.184c-0.925,2.103 -2.23,3.894 -3.916,5.371c-1.686,1.477 -3.685,2.603 -5.998,3.379c-2.312,0.776 -4.841,1.164 -7.587,1.164c-2.446,-0 -4.878,-0.381 -7.295,-1.141c-2.417,-0.761 -4.625,-1.933 -6.625,-3.514c-1.999,-1.582 -3.595,-3.603 -4.789,-6.065c-1.193,-2.462 -1.79,-5.408 -1.79,-8.84l5.147,0c0,2.716 0.455,5.021 1.365,6.915c0.91,1.895 2.096,3.417 3.559,4.566c1.462,1.149 3.103,1.984 4.923,2.506c1.82,0.523 3.655,0.784 5.505,0.784c2.805,-0 5.23,-0.515 7.274,-1.545c2.044,-1.029 3.625,-2.446 4.744,-4.252c1.119,-1.805 1.679,-3.946 1.679,-6.423Z" style="fill:#fff;fill-rule:nonzero;"/><path d="M1665.24,262.604l-0,4.834l-32.54,-0l-0,-4.834l32.54,-0Zm-31.421,-29.139l-0,65.17l-5.148,-0l0,-65.17l5.148,0Zm35.673,0l-0,65.17l-5.148,-0l0,-65.17l5.148,0Z" style="fill:#fff;fill-rule:nonzero;"/><rect x="1682.07" y="233.465" width="5.192" height="65.169" style="fill:#fff;fill-rule:nonzero;"/><path d="M1718.63,272.137l-15.442,0l-0,-4.834l15.442,0c3.193,0 5.774,-0.634 7.743,-1.902c1.969,-1.268 3.409,-2.976 4.319,-5.125c0.91,-2.148 1.365,-4.565 1.365,-7.251c0,-2.656 -0.455,-5.102 -1.365,-7.34c-0.91,-2.238 -2.35,-4.036 -4.319,-5.394c-1.969,-1.357 -4.55,-2.036 -7.743,-2.036l-13.786,-0l-0,60.38l-5.147,-0l-0,-65.17l18.933,0c4.028,0 7.422,0.821 10.182,2.462c2.761,1.641 4.849,3.924 6.267,6.848c1.417,2.925 2.126,6.311 2.126,10.161c-0,3.998 -0.709,7.437 -2.126,10.317c-1.418,2.879 -3.499,5.08 -6.244,6.602c-2.745,1.521 -6.147,2.282 -10.205,2.282Z" style="fill:#fff;fill-rule:nonzero;"/><circle cx="181.38" cy="186.754" r="168.75"/><clipPath id="_clip1"><rect id="logo-white.svg" x="8.463" y="13.838" width="345.833" height="345.833"/></clipPath><g clip-path="url(#_clip1)"><g id="svg"><g id="svgg"><path id="path0" d="M156.59,15.901c-104.393,17.1 -170.273,118.903 -141.269,218.271c4.916,16.829 4.747,16.778 8.565,1.81c1.875,-7.307 3.952,-14.715 4.628,-16.457c0.845,-2.148 0.845,-6.191 0,-12.703c-16.926,-130.996 129.124,-221.129 239.142,-147.554c114.327,76.449 75.998,255.785 -59.73,279.481c-18.362,3.213 -17.416,3.535 -31.606,-10.571c-13.784,-13.7 -13.513,-13.819 -8.023,3.755l2.77,8.896l-8.058,-0.862c-12.229,-1.303 -30.439,-6.275 -33.48,-9.134c-8.294,-7.797 -14.797,-32.288 -15.642,-58.876c-0.304,-9.472 -0.963,-17.252 -1.47,-17.303c-6.571,-0.473 -22.449,7.053 -33.598,15.916c-10.085,8.017 -10.169,7.949 -6.605,-6.038c11.706,-45.887 47.028,-92.721 85.052,-112.747l8.463,-4.465l-4.611,-0.862c-2.534,-0.474 -9.578,-0.592 -15.643,-0.237l-11.03,0.626l11.537,-5.802c13.446,-6.765 23.852,-10.385 35.254,-12.279c4.679,-0.778 8.142,-1.962 8.142,-2.774c0,-5.074 32.298,-45.379 36.352,-45.379c0.591,-0 0.726,5.531 0.321,12.398c-0.929,15.374 -1.199,14.985 18.277,25.776c17.129,9.488 20.17,11.992 19.68,16.186c-0.591,5.108 -3.953,4.347 -7.5,-1.691c-3.666,-6.258 -7.18,-8.44 -16.183,-10.081c-7.517,-1.37 -7.906,-0.947 -6.216,6.597c2.094,9.387 7.686,13.514 22.568,16.66c17.027,3.619 45.017,15.493 44.156,18.723c-0.321,1.235 0.354,3.687 1.52,5.446c2.027,3.079 2.01,3.349 -0.304,6.478c-8.108,10.96 -19.156,13.227 -31.403,6.461c-26.368,-14.579 -43.733,-20.618 -62.112,-21.632c-17.399,-0.948 -31.352,3.01 -17.382,4.921c6.588,0.914 13.463,4.263 17.449,8.542l2.923,3.146l-5.946,-0c-40.525,0.169 -71.437,35.383 -62.535,71.257c3.091,12.465 11.622,27.84 22.162,39.933c4.156,4.77 4.392,4.55 1.774,-1.742c-6.976,-16.728 -3.547,-46.191 6.757,-57.929c7.483,-8.525 8.176,-8.17 7.5,3.89c-2.061,36.364 22.703,59.993 68.549,65.405c8.412,0.998 8.885,0.44 2.685,-3.112c-25.084,-14.326 -44.037,-46.952 -40,-68.822c4.932,-26.723 21.335,-36.093 57.923,-33.083l17.838,1.472l5.321,-3.112c12.754,-7.476 29.308,-26.132 26.082,-29.363c-0.98,-0.981 -11.808,-6.122 -24.038,-11.416l-22.264,-9.624l-0.608,-7.561c-0.743,-9.437 -0.692,-9.353 -11.554,-16.693c-8.193,-5.531 -8.97,-6.411 -8.97,-10.148c0,-10.419 -5.878,-31.883 -8.328,-30.377c-0.625,0.389 -1.52,6.68 -1.993,13.987c-0.878,13.582 -1.892,15.679 -5.49,11.349c-1.149,-1.387 -1.622,-6.224 -1.655,-16.795c-0.051,-15.865 -1.453,-19.941 -6.909,-19.941c-8.48,-0 -33.396,19.907 -49.427,39.493c-2.584,3.163 -5.101,4.347 -14.476,6.85c-37.129,9.895 -86.843,40.018 -100.661,60.991c-4.544,6.884 -3.851,7.053 6.673,1.59c21.436,-11.129 44.308,-18.369 32.534,-10.318c-34.511,23.646 -56.099,62.835 -63.278,114.878c-1.74,12.634 37.23,48.762 68.312,63.358c128.887,60.467 271.879,-52.026 243.129,-191.276c-18.294,-88.289 -106.624,-150.109 -194.041,-135.783" style="fill:#fff;fill-rule:nonzero;"/></g></g></g></svg>