<svg xmlns="http://www.w3.org/2000/svg" viewBox="0 0 1102.06 540.33"><defs><style>.a{fill:#fff;}</style></defs><path d="M231.72,3.23C68.43,30-34.63,189,10.74,344.24c7.68,26.29,7.42,26.23,13.4,2.84,2.92-11.43,6.19-23,7.25-25.71,1.32-3.35,1.32-9.66,0-19.83C4.89,96.84,233.36-44,405.47,71,584.31,190.41,524.35,470.6,312,507.63c-28.74,5-27.24,5.51-49.43-16.52C241,469.72,241.46,469.52,250,497l4.33,13.9-12.61-1.34c-19.14-2-47.61-9.8-52.38-14.27-13-12.2-23.16-50.45-24.48-92-.47-14.81-1.51-27-2.31-27-10.28-.74-35.13,11-52.57,24.88-15.78,12.54-15.91,12.42-10.33-9.44,18.31-71.7,73.57-144.87,133-176.17l13.24-7-7.22-1.35c-4-.74-15-.91-24.47-.37l-17.26,1,18-9.07c21-10.55,37.33-16.22,55.15-19.17,7.33-1.21,12.75-3.06,12.75-4.34,0-7.91,50.52-70.89,56.87-70.89.92,0,1.13,8.64.49,19.36-1.45,24-1.87,23.43,28.59,40.28,26.81,14.84,31.55,18.73,30.78,25.29-.93,8-6.19,6.79-11.73-2.65-5.73-9.78-11.22-13.2-25.3-15.76-11.75-2.13-12.37-1.47-9.73,10.31,3.28,14.66,12,21.1,35.3,26,26.63,5.65,70.42,24.2,69.09,29.27-.5,1.92.57,5.76,2.38,8.52,3.16,4.82,3.14,5.23-.48,10.11-12.69,17.12-30,20.67-49.13,10.1-41.26-22.78-68.42-32.23-97.16-33.79-27.21-1.48-49,4.7-27.18,7.7,10.31,1.41,21.07,6.67,27.29,13.34l4.58,4.9-9.3,0c-63.4.23-111.76,55.25-97.84,111.3,4.84,19.47,18.19,43.51,34.66,62.39,6.51,7.45,6.87,7.1,2.77-2.72-10.91-26.13-5.54-72.17,10.57-90.51,11.7-13.32,12.8-12.75,11.72,6.08-3.24,56.81,35.51,93.74,107.23,102.19,13.17,1.55,13.91.7,4.19-4.85-39.23-22.39-68.9-73.37-62.58-107.53,7.71-41.74,33.38-56.38,90.61-51.69l27.91,2.29,8.32-4.87c19.95-11.69,45.85-40.82,40.8-45.88-1.53-1.53-18.46-9.56-37.61-17.83l-34.82-15-.95-11.82c-1.17-14.74-1.09-14.61-18.07-26.08-12.82-8.65-14-10-14-15.86,0-16.29-9.2-49.81-13-47.45-1,.6-2.38,10.44-3.12,21.86-1.38,21.22-3,24.5-8.59,17.72-1.8-2.17-2.55-9.74-2.6-26.24-.07-24.79-2.28-31.17-10.81-31.17-13.26,0-52.23,31.1-77.33,61.7-4.05,4.93-8,6.79-22.64,10.69C185,169.53,107.24,216.6,85.62,249.36c-7.11,10.77-6,11,10.45,2.48,33.52-17.38,69.3-28.71,50.89-16.12C93,272.66,59.2,333.89,48,415.2c-2.73,19.73,58.23,76.19,106.87,99,201.62,94.48,425.34-81.29,380.35-298.84C506.68,77.43,368.49-19.16,231.72,3.23"/><path class="a" d="M792.75,3.23C629.46,30,526.4,189,571.77,344.24c7.68,26.29,7.42,26.23,13.4,2.84,2.92-11.43,6.19-23,7.25-25.71,1.32-3.35,1.32-9.66,0-19.83C565.92,96.84,794.39-44,966.5,71c178.84,119.44,118.88,399.63-93.45,436.66-28.74,5-27.24,5.51-49.43-16.52-21.56-21.39-21.13-21.59-12.56,5.88l4.34,13.9-12.62-1.34c-19.14-2-47.61-9.8-52.38-14.27-13-12.2-23.16-50.45-24.48-92-.47-14.81-1.51-27-2.31-27-10.28-.74-35.13,11-52.57,24.88-15.78,12.54-15.91,12.42-10.33-9.44,18.31-71.7,73.57-144.87,133-176.17l13.24-7-7.22-1.35c-4-.74-15-.91-24.47-.37l-17.26,1,18.05-9.07c21-10.55,37.33-16.22,55.15-19.17,7.33-1.21,12.75-3.06,12.75-4.34,0-7.91,50.52-70.89,56.87-70.89.92,0,1.13,8.64.49,19.36-1.45,24-1.87,23.43,28.59,40.28,26.81,14.84,31.55,18.73,30.78,25.29-.93,8-6.19,6.79-11.73-2.65-5.73-9.78-11.22-13.2-25.3-15.76-11.75-2.13-12.37-1.47-9.73,10.31,3.28,14.66,12,21.1,35.3,26,26.63,5.65,70.42,24.2,69.09,29.27-.5,1.92.57,5.76,2.38,8.52,3.16,4.82,3.14,5.23-.48,10.11-12.69,17.12-30,20.67-49.13,10.1C929.87,242.42,902.71,233,874,231.41c-27.21-1.48-49,4.7-27.18,7.7,10.31,1.41,21.07,6.67,27.29,13.34l4.58,4.9-9.3,0c-63.4.23-111.76,55.25-97.84,111.3,4.84,19.47,18.19,43.51,34.66,62.39,6.51,7.45,6.87,7.1,2.77-2.72-10.91-26.13-5.54-72.17,10.57-90.51,11.7-13.32,12.8-12.75,11.72,6.08-3.24,56.81,35.51,93.74,107.23,102.19,13.17,1.55,13.91.7,4.19-4.85-39.23-22.39-68.9-73.37-62.58-107.53,7.71-41.74,33.38-56.38,90.61-51.69l27.92,2.29,8.31-4.87c19.95-11.69,45.86-40.82,40.81-45.88-1.54-1.53-18.47-9.56-37.62-17.83l-34.82-15-.95-11.82c-1.17-14.74-1.09-14.61-18.07-26.08-12.82-8.65-14-10-14-15.86,0-16.29-9.2-49.81-13-47.45-1,.6-2.38,10.44-3.12,21.86-1.38,21.22-3,24.5-8.59,17.72-1.8-2.17-2.55-9.74-2.6-26.24-.07-24.79-2.28-31.17-10.81-31.17-13.26,0-52.23,31.1-77.33,61.7-4,4.93-8,6.79-22.64,10.69-58.07,15.47-135.85,62.54-157.47,95.3-7.11,10.77-6,11,10.45,2.48,33.52-17.38,69.3-28.71,50.89-16.12-54,36.94-87.76,98.17-99,179.48-2.73,19.73,58.23,76.19,106.87,99,201.62,94.48,425.34-81.29,380.35-298.84C1067.71,77.43,929.52-19.16,792.75,3.23"/></svg>